# Blender 3.4.0
# www.blender.org
mtllib ak47.mtl
o Cube
v -1.155119 0.250770 0.000000
v -0.602667 0.535675 0.000000
v -0.354878 0.199187 0.000000
v 0.935457 0.149799 0.000000
v 0.855758 0.528268 0.000000
v -1.153092 0.535675 0.000000
v -1.154094 0.398772 0.000000
v -1.154751 0.302535 0.000000
v -2.226862 0.398772 0.000000
v -2.278552 0.302535 0.000000
v -1.153270 0.511442 0.000000
v -1.153949 0.418549 0.000000
v -1.463415 0.511442 0.000000
v -1.521380 0.405202 0.000000
v -1.440630 0.418549 0.000000
v -1.548000 0.268879 0.000000
v -1.548004 0.296747 0.000000
v -1.481982 0.268879 0.000000
v -1.481980 0.296747 0.000000
v -1.904214 0.302535 0.000000
v -1.913886 0.398772 0.000000
v -1.988925 0.398772 0.000000
v -1.989582 0.302535 0.000000
v 0.855758 0.478205 -0.077089
v 0.855758 0.149799 -0.077089
v -0.354878 0.199187 -0.077089
v -0.354878 0.395026 -0.077089
v -0.602667 0.485612 -0.077089
v -1.155119 0.395026 -0.077089
v -0.603555 0.395026 -0.077089
v -1.154739 0.367368 -0.048523
v -2.227509 0.367368 -0.048523
v -1.154299 0.435436 -0.041584
v -1.440630 0.435436 -0.041584
v -1.904202 0.367368 -0.048523
v -1.548000 0.367368 -0.067555
v -1.548000 0.367995 -0.051878
v -1.481980 0.367368 -0.067555
v -1.481980 0.367995 -0.051878
v -1.989570 0.367368 -0.048523
v -1.528825 0.398772 0.000000
v -1.988380 0.291244 0.000000
v -1.988366 0.369039 -0.058223
v -1.904599 0.291244 0.000000
v -1.904585 0.369039 -0.058223
v -1.987591 0.577939 0.000000
v 1.010988 0.345128 0.000000
v 0.987978 0.177491 -0.049398
v 1.010988 0.318041 -0.049398
v 0.987978 0.420609 0.000000
v 0.987978 0.149799 -0.077089
v 0.987978 0.370547 -0.077089
v 2.288317 0.211822 0.000000
v 2.170100 -0.351608 -0.049398
v 2.288317 0.184735 -0.049398
v 1.452074 0.291861 0.000000
v 1.452074 0.264775 -0.049398
v 1.501243 0.306871 0.000000
v 1.501243 0.279784 -0.049398
v 0.639242 0.159727 0.000000
v 0.855758 0.149799 -0.051972
v 1.016162 -0.336316 -0.000000
v 0.759014 -0.476927 -0.000000
v 0.849897 -0.431178 -0.052760
v 0.911163 0.022417 0.000000
v 0.855758 -0.089622 -0.051972
v 0.639242 0.037055 0.000000
v -0.083366 0.180011 0.000000
v 0.222990 0.180011 0.000000
v 0.222990 0.180011 -0.035071
v -0.083366 0.180011 -0.035071
v 0.139770 -0.144315 -0.035071
v -0.150594 -0.046630 -0.035071
v -0.056285 -0.449188 -0.035071
v -0.298131 -0.261134 -0.035071
v -0.357061 -0.714045 -0.035071
v -0.520513 -0.454936 -0.035071
v 2.288317 0.184735 0.000000
v 2.170100 -0.351608 -0.000000
v 0.987978 0.177491 0.000000
v -0.520513 -0.454936 -0.000000
v -0.298131 -0.261134 -0.000000
v 0.139770 -0.144315 -0.000000
v -0.056285 -0.449188 -0.000000
v -0.357061 -0.714045 -0.000000
v -0.150594 -0.046630 -0.000000
v 0.987978 0.149799 0.000000
v 0.855758 0.478205 0.077089
v 0.855758 0.149799 0.077089
v -0.354878 0.199187 0.077089
v -0.354878 0.395026 0.077089
v -0.602667 0.485612 0.077089
v -1.155119 0.395026 0.077089
v -0.603555 0.395026 0.077089
v -1.154739 0.367368 0.048523
v -2.227509 0.367368 0.048523
v -1.154299 0.435436 0.041584
v -1.440630 0.435436 0.041584
v -1.904202 0.367368 0.048523
v -1.548000 0.367368 0.067555
v -1.548000 0.367995 0.051878
v -1.481980 0.367368 0.067555
v -1.481980 0.367995 0.051878
v -1.989570 0.367368 0.048523
v -1.988366 0.369039 0.058223
v -1.904585 0.369039 0.058223
v 0.987978 0.177491 0.049398
v 1.010988 0.318041 0.049398
v 0.987978 0.149799 0.077089
v 0.987978 0.370547 0.077089
v 2.170100 -0.351608 0.049398
v 2.288317 0.184735 0.049398
v 1.452074 0.264775 0.049398
v 1.501243 0.279784 0.049398
v 0.855758 0.149799 0.051972
v 0.849897 -0.431178 0.052760
v 0.855758 -0.089622 0.051972
v 0.222990 0.180011 0.035071
v -0.083366 0.180011 0.035071
v 0.139770 -0.144315 0.035071
v -0.150594 -0.046630 0.035071
v -0.056285 -0.449188 0.035071
v -0.298131 -0.261134 0.035071
v -0.357061 -0.714045 0.035071
v -0.520513 -0.454936 0.035071
vn 0.0043 0.8387 -0.5446
vn -0.8430 0.4523 -0.2910
vn -0.8497 0.4486 -0.2770
vn -0.8476 0.4545 -0.2740
vn -0.9999 0.0055 0.0098
vn -0.9998 0.0046 0.0178
vn -0.0000 0.8395 -0.5433
vn -0.0000 0.4800 -0.8773
vn -0.0000 -0.9265 -0.3763
vn -0.0000 0.5886 0.8084
vn -0.0000 -0.5992 -0.8006
vn -1.0000 -0.0000 -0.0000
vn -0.0000 -0.4713 -0.8820
vn -0.0000 -0.0000 -1.0000
vn -0.9999 0.0098 -0.0064
vn -0.9999 0.0073 0.0114
vn -0.9995 0.0147 0.0275
vn -0.0780 0.4604 -0.8843
vn -0.0000 0.4806 -0.8769
vn 0.8487 -0.4900 -0.1990
vn -1.0000 0.0001 -0.0000
vn 1.0000 -0.0000 -0.0000
vn -0.9845 -0.1048 -0.1403
vn -0.0000 0.2685 -0.9633
vn 0.9238 0.3800 -0.0465
vn 0.9599 0.2800 0.0103
vn 0.9984 -0.0340 -0.0453
vn 0.9984 -0.0341 -0.0453
vn 0.1038 0.8596 -0.5002
vn -0.0000 -0.8126 0.5828
vn 0.1254 -0.7586 0.6393
vn -0.6570 0.7539 -0.0000
vn -0.9587 0.2844 -0.0000
vn 0.3040 -0.0030 -0.9527
vn -0.2673 -0.0623 -0.9616
vn -0.0000 -1.0000 -0.0000
vn -0.2334 -0.0000 -0.9724
vn 0.6842 -0.0000 -0.7293
vn -0.0000 -0.5656 -0.8247
vn -0.8239 0.5667 -0.0000
vn 0.5639 0.6926 -0.4498
vn -0.8752 0.4775 0.0774
vn -0.7968 0.6037 -0.0242
vn -0.0458 -0.9990 -0.0000
vn -0.0000 -0.9097 -0.4152
vn -0.0704 -0.9975 -0.0000
vn -0.0406 -0.9937 0.1040
vn 0.4787 -0.8755 0.0655
vn -0.0000 -0.3663 -0.9305
vn -0.0254 -0.3939 -0.9188
vn -0.9999 0.0073 0.0113
vn -0.9998 0.0047 0.0178
vn -0.2551 0.8357 -0.4863
vn -0.9999 0.0071 0.0092
vn -0.0000 0.3565 -0.9343
vn 0.8509 -0.5249 0.0210
vn -1.0000 -0.0001 -0.0002
vn 1.0000 -0.0001 -0.0001
vn -0.9846 -0.1048 -0.1402
vn -0.9999 0.0074 -0.0134
vn -0.9819 0.1647 -0.0935
vn 0.9742 -0.1595 0.1595
vn 0.7691 -0.0000 -0.6391
vn 0.5022 0.1470 -0.8522
vn -0.5060 0.0107 -0.8624
vn 0.5433 -0.1036 -0.8331
vn 0.9371 0.2929 -0.1902
vn 0.9323 0.3125 -0.1819
vn 0.9323 0.3126 -0.1819
vn 0.9766 -0.2152 -0.0000
vn -0.4085 -0.9127 -0.0000
vn -0.8458 -0.5335 -0.0000
vn 0.9686 -0.2485 -0.0000
vn 0.6609 -0.7505 -0.0000
vn 0.8411 -0.5409 -0.0000
vn -0.0705 -0.9975 -0.0000
vn -0.0405 -0.9938 0.1040
vn -0.0481 -0.9988 -0.0065
vn -0.0487 -0.9988 -0.0000
vn 0.0001 -0.9097 -0.4152
vn -0.0405 -0.9937 0.1040
vn 0.9371 0.2929 -0.1901
vn 0.0043 0.8387 0.5446
vn -0.8430 0.4523 0.2910
vn -0.8476 0.4545 0.2740
vn -0.8497 0.4486 0.2770
vn -0.9999 0.0055 -0.0098
vn -0.9998 0.0046 -0.0178
vn -0.0000 0.8395 0.5433
vn -0.0000 0.4800 0.8773
vn -0.0000 -0.9265 0.3763
vn -0.0000 0.5886 -0.8084
vn -0.0000 -0.5992 0.8006
vn -0.0000 -0.4713 0.8820
vn -0.0000 -0.0000 1.0000
vn -0.9999 0.0098 0.0064
vn -0.9999 0.0073 -0.0114
vn -0.9995 0.0147 -0.0275
vn -0.0780 0.4604 0.8843
vn -0.0000 0.4806 0.8769
vn 0.8487 -0.4900 0.1990
vn -0.9845 -0.1048 0.1403
vn -0.0000 0.2685 0.9633
vn 0.9238 0.3800 0.0465
vn 0.9599 0.2800 -0.0103
vn 0.9984 -0.0340 0.0453
vn 0.9984 -0.0341 0.0453
vn 0.1038 0.8596 0.5002
vn -0.0000 -0.8126 -0.5828
vn 0.1254 -0.7586 -0.6393
vn 0.3040 -0.0030 0.9527
vn -0.2673 -0.0623 0.9616
vn -0.2334 -0.0000 0.9724
vn 0.6842 -0.0000 0.7293
vn -0.0000 -0.5656 0.8247
vn 0.5639 0.6926 0.4498
vn -0.8752 0.4775 -0.0774
vn -0.7968 0.6037 0.0242
vn -0.0000 -0.9097 0.4152
vn -0.0406 -0.9937 -0.1040
vn 0.4787 -0.8755 -0.0655
vn -0.0000 -0.3663 0.9305
vn -0.0254 -0.3939 0.9188
vn -0.9999 0.0073 -0.0113
vn -0.9998 0.0047 -0.0178
vn -0.2551 0.8357 0.4863
vn -0.9999 0.0071 -0.0092
vn -0.0000 0.3565 0.9343
vn 0.8509 -0.5249 -0.0210
vn -1.0000 -0.0001 0.0002
vn 1.0000 -0.0001 0.0001
vn -0.9846 -0.1048 0.1402
vn -0.9999 0.0074 0.0134
vn -0.9819 0.1647 0.0935
vn 0.9742 -0.1595 -0.1595
vn 0.7691 -0.0000 0.6391
vn 0.5022 0.1470 0.8522
vn -0.5060 0.0107 0.8624
vn 0.5433 -0.1036 0.8331
vn 0.9371 0.2929 0.1902
vn 0.9323 0.3126 0.1819
vn 0.9323 0.3125 0.1819
vn -0.0405 -0.9938 -0.1040
vn -0.0481 -0.9988 0.0065
vn 0.0001 -0.9097 0.4152
vn -0.0405 -0.9937 -0.1040
vn 0.9371 0.2929 0.1901
vt 0.159870 0.442741
vt 0.599246 0.252883
vt 0.173801 0.339024
vt 0.193079 0.339866
vt 0.349931 0.589471
vt 0.244645 0.202853
vt 0.459419 0.420250
vt 0.001732 0.000000
vt 0.708394 0.646995
vt 0.001717 0.799069
vt 0.554604 0.341008
vt 0.599245 0.199273
vt 0.159104 0.581577
vt 0.418421 0.965391
vt 0.599246 0.225034
vt 0.599246 0.243143
vt 0.418071 0.932403
vt 0.564067 0.946709
vt 0.298931 0.972849
vt 0.562036 0.895220
vt 0.299298 0.927930
vt 0.599245 0.203833
vt 0.176849 0.973122
vt 0.176849 0.929883
vt 0.599246 0.221312
vt 0.414992 0.973122
vt 0.698716 0.863412
vt 0.709728 0.887624
vt 0.709578 0.829471
vt 0.637311 0.907307
vt 0.494547 0.938023
vt 0.637311 0.835556
vt 0.396975 0.929883
vt 0.699145 0.754533
vt 0.709728 0.758839
vt 0.709658 0.772823
vt 0.662777 0.835556
vt 0.487756 0.885166
vt 0.737375 0.753325
vt 0.494161 0.895714
vt 0.662777 0.893981
vt 0.282514 0.930571
vt 0.011390 0.932403
vt 0.012674 0.965391
vt 0.280737 0.947168
vt 0.137643 0.972849
vt 0.147772 0.945392
vt 0.147772 0.928664
vt 0.138010 0.927930
vt 0.551944 0.315789
vt 0.561503 0.195893
vt 0.059032 0.749762
vt 0.239236 0.202853
vt 0.241898 0.203843
vt 0.059064 0.000408
vt 0.239236 0.296664
vt 0.459709 0.513266
vt 0.241288 0.295551
vt 0.170259 0.316490
vt 0.173867 0.308599
vt 0.159739 0.513656
vt 0.159186 0.540266
vt 0.581183 0.225740
vt 0.193079 0.293628
vt 0.173743 0.294998
vt 0.375222 0.510998
vt 0.350408 0.541495
vt 0.418077 0.951652
vt 0.587878 0.230944
vt 0.544749 0.920459
vt 0.299292 0.954141
vt 0.589503 0.218135
vt 0.177639 0.944639
vt 0.177117 0.944639
vt 0.737375 0.838072
vt 0.484465 0.956213
vt 0.397497 0.944639
vt 0.396975 0.944639
vt 0.294972 0.942998
vt 0.011892 0.951652
vt 0.690444 0.807866
vt 0.689312 0.816586
vt 0.694860 0.808272
vt 0.637311 0.835559
vt 0.619611 0.931816
vt 0.476041 0.908314
vt 0.740669 0.821211
vt 0.637311 0.893981
vt 0.484817 0.908033
vt 0.617687 0.873760
vt 0.139475 0.939952
vt 0.138003 0.954141
vt 0.218306 0.965391
vt 0.147750 0.926700
vt 0.616369 0.754548
vt 0.137796 0.940244
vt 0.616369 0.808530
vt 0.282720 0.928649
vt 0.666270 0.754593
vt 0.666270 0.808574
vt 0.297671 0.943571
vt 0.616800 0.932031
vt 0.277210 0.980093
vt 0.147770 0.976533
vt 0.170899 0.707051
vt 0.607789 0.273989
vt 0.186385 0.651770
vt 0.606095 0.227612
vt 0.599138 0.261098
vt 0.176717 0.691486
vt 0.594754 0.294437
vt 0.059064 0.831535
vt 0.599940 0.196790
vt 0.586707 0.277839
vt 0.543690 0.815784
vt 0.546699 0.642401
vt 0.536570 0.803325
vt 0.277144 0.727933
vt 0.282333 0.721142
vt 0.292875 0.754272
vt 0.296323 0.740510
vt 0.615778 0.630751
vt 0.001644 0.615731
vt 0.040351 0.749767
vt 0.680868 0.641184
vt 0.752405 0.454351
vt 0.681318 0.402949
vt 0.703233 0.437529
vt 0.708767 0.596714
vt 0.691296 0.548594
vt 0.622045 0.583657
vt 0.831545 0.494673
vt 0.000000 0.168332
vt 0.001544 0.357990
vt 0.909481 0.485020
vt 0.027628 0.357983
vt 0.902287 0.488024
vt 0.836899 0.491456
vt 0.026083 0.168518
vt 0.873051 0.354883
vt 0.812306 0.403979
vt 0.819869 0.252518
vt 0.767041 0.308979
vt 0.748348 0.169112
vt 0.712163 0.248149
vt 0.548697 0.808015
vt 0.557300 0.631006
vt 0.615773 0.221467
vt 0.185965 0.640595
vt 0.704032 0.247177
vt 0.763511 0.318121
vt 0.878184 0.349726
vt 0.824708 0.243477
vt 0.748993 0.155440
vt 0.807673 0.407500
vt 0.001730 0.831551
vt 0.616833 0.196728
vt 0.551944 0.315789
vt 0.561503 0.195893
vt 0.059032 0.749762
vt 0.239236 0.202853
vt 0.241898 0.203843
vt 0.059064 0.000408
vt 0.239236 0.296664
vt 0.459709 0.513266
vt 0.241288 0.295551
vt 0.170259 0.316490
vt 0.173867 0.308599
vt 0.159739 0.513656
vt 0.159186 0.540266
vt 0.581183 0.225740
vt 0.193079 0.293628
vt 0.173743 0.294998
vt 0.375222 0.510998
vt 0.350408 0.541495
vt 0.418077 0.951652
vt 0.587878 0.230944
vt 0.544749 0.920459
vt 0.299292 0.954141
vt 0.589503 0.218135
vt 0.177639 0.944639
vt 0.177117 0.944639
vt 0.737375 0.838072
vt 0.484465 0.956213
vt 0.397497 0.944639
vt 0.396975 0.944639
vt 0.294972 0.942998
vt 0.011892 0.951652
vt 0.690444 0.807866
vt 0.689312 0.816586
vt 0.694860 0.808272
vt 0.637311 0.835559
vt 0.619611 0.931816
vt 0.476041 0.908314
vt 0.740669 0.821211
vt 0.637311 0.893981
vt 0.484817 0.908033
vt 0.617687 0.873760
vt 0.139475 0.939952
vt 0.138003 0.954141
vt 0.137796 0.940244
vt 0.616369 0.808530
vt 0.666270 0.808574
vt 0.297671 0.943571
vt 0.186385 0.651770
vt 0.606095 0.227612
vt 0.599138 0.261098
vt 0.176717 0.691486
vt 0.059064 0.831535
vt 0.599940 0.196790
vt 0.586707 0.277839
vt 0.546699 0.642401
vt 0.536570 0.803325
vt 0.282333 0.721142
vt 0.296323 0.740510
vt 0.040351 0.749767
vt 0.680868 0.641184
vt 0.703233 0.437529
vt 0.691296 0.548594
vt 0.027628 0.357983
vt 0.902287 0.488024
vt 0.836899 0.491456
vt 0.026083 0.168518
vt 0.873051 0.354883
vt 0.812306 0.403979
vt 0.819869 0.252518
vt 0.767041 0.308979
vt 0.748348 0.169112
vt 0.712163 0.248149
s 0
usemtl Material.001
f 5/11/1 28/60/1 2/3/1
f 10/20/2 9/18/3 32/70/4
f 31/69/5 33/72/6 29/63/6
f 40/92/7 9/19/7 22/46/7
f 11/23/8 34/77/8 13/26/8
f 15/33/9 33/74/9 12/24/9
f 37/84/10 19/41/10 39/88/10
f 23/49/11 32/71/11 40/92/11
f 27/56/12 26/53/12 3/6/12
f 1/1/13 29/61/13 30/66/13
f 25/51/14 27/58/14 24/50/14
f 2/4/15 28/59/15 30/64/15
f 7/15/16 12/25/16 33/72/16
f 1/2/17 31/69/17 29/63/17
f 13/27/18 34/75/18 36/82/18
f 35/80/7 21/44/7 41/93/7
f 6/13/19 30/67/19 29/62/19
f 39/89/20 34/76/20 15/31/20
f 36/81/21 17/36/21 37/83/21
f 19/40/22 38/86/22 39/89/22
f 23/48/23 43/96/23 42/94/23
f 8/17/11 35/80/11 31/68/11
f 44/99/11 43/97/11 45/100/11
f 45/100/24 43/97/24 46/102/24
f 21/45/25 45/101/25 46/103/25
f 21/45/26 35/79/26 45/101/26
f 44/98/27 45/101/27 20/42/27
f 45/101/28 35/79/28 20/42/28
f 49/110/29 56/118/29 57/119/29
f 14/30/30 39/90/31 15/32/31
f 77/145/32 82/151/32 75/143/32
f 52/114/14 25/51/14 24/50/14
f 55/117/22 53/115/22 78/146/22
f 59/121/29 53/115/29 55/117/29
f 48/107/14 49/110/14 57/119/14
f 86/155/33 71/138/33 73/141/33
f 66/130/34 62/126/34 64/128/34
f 66/130/35 63/127/35 67/131/35
f 25/52/36 4/10/36 61/124/36
f 61/125/37 67/131/37 60/122/37
f 61/125/38 65/129/38 66/130/38
f 36/82/39 18/39/39 16/34/39
f 73/141/14 74/142/14 75/143/14
f 71/138/14 72/140/14 73/141/14
f 75/143/40 86/155/40 73/141/40
f 75/143/14 76/144/14 77/145/14
f 28/60/14 24/50/14 27/58/14
f 24/50/41 50/111/41 52/114/41
f 27/58/14 30/65/14 28/60/14
f 13/28/42 36/81/42 14/29/42
f 36/81/43 37/83/43 14/29/43
f 25/52/44 61/124/44 60/123/44
f 70/136/45 71/139/46 26/55/47
f 62/126/48 63/127/48 64/128/48
f 27/57/49 3/7/49 30/66/49
f 3/7/50 1/1/50 30/66/50
f 11/22/51 6/12/51 33/72/51
f 6/12/52 29/63/52 33/72/52
f 56/118/53 59/121/53 57/119/53
f 1/2/54 8/16/54 31/69/54
f 34/75/55 38/87/55 36/82/55
f 7/14/7 31/68/7 41/93/7
f 31/68/7 35/80/7 41/93/7
f 39/89/56 38/86/56 34/76/56
f 36/81/57 16/35/57 17/36/57
f 19/40/58 18/38/58 38/86/58
f 23/48/59 40/91/59 43/96/59
f 46/104/60 43/96/60 22/47/60
f 43/96/61 40/91/61 22/47/61
f 49/109/62 48/108/62 51/113/62
f 49/109/63 51/113/63 52/114/63
f 57/119/14 59/121/14 54/116/14
f 59/121/14 55/117/14 54/116/14
f 54/116/14 48/107/14 57/119/14
f 66/130/64 65/129/64 62/126/64
f 66/130/65 64/128/65 63/127/65
f 61/125/66 4/9/66 65/129/66
f 52/114/67 47/106/68 49/109/69
f 4/10/36 51/112/36 87/156/36
f 55/117/70 79/147/70 54/116/70
f 79/147/71 48/107/71 54/116/71
f 81/150/72 76/144/72 85/154/72
f 72/140/73 69/135/73 83/152/73
f 85/154/74 74/142/74 84/153/74
f 84/153/75 72/140/75 83/152/75
f 87/157/22 48/108/22 80/148/22
f 5/11/1 24/50/1 28/60/1
f 31/69/5 7/15/5 33/72/6
f 40/92/7 32/71/7 9/19/7
f 11/23/8 33/73/8 34/77/8
f 15/33/9 34/78/9 33/74/9
f 37/84/10 17/37/10 19/41/10
f 23/49/11 10/21/11 32/71/11
f 25/51/14 26/54/14 27/58/14
f 6/13/19 2/5/19 30/67/19
f 8/17/11 20/43/11 35/80/11
f 44/99/11 42/95/11 43/97/11
f 49/110/29 47/105/29 56/118/29
f 14/30/30 37/85/30 39/90/31
f 77/145/32 81/150/32 82/151/32
f 52/114/14 51/113/14 25/51/14
f 59/121/29 58/120/29 53/115/29
f 86/155/33 68/132/33 71/138/33
f 25/52/36 51/112/36 4/10/36
f 61/125/37 66/130/37 67/131/37
f 36/82/39 38/87/39 18/39/39
f 73/141/14 72/140/14 74/142/14
f 71/138/14 70/137/14 72/140/14
f 75/143/40 82/151/40 86/155/40
f 75/143/14 74/142/14 76/144/14
f 24/50/41 5/11/41 50/111/41
f 68/133/76 3/8/76 71/139/76
f 3/8/76 26/55/77 71/139/76
f 25/52/78 60/123/79 70/136/45
f 60/123/79 69/134/79 70/136/80
f 25/52/78 70/136/45 26/55/81
f 56/118/53 58/120/53 59/121/53
f 52/114/82 50/111/82 47/106/69
f 55/117/70 78/146/70 79/147/70
f 79/147/71 80/149/71 48/107/71
f 81/150/72 77/145/72 76/144/72
f 72/140/73 70/137/73 69/135/73
f 85/154/74 76/144/74 74/142/74
f 84/153/75 74/142/75 72/140/75
f 87/157/22 51/113/22 48/108/22
f 5/11/83 2/3/83 92/168/83
f 10/20/84 96/178/85 9/18/86
f 95/177/87 93/171/88 97/180/88
f 104/200/89 22/46/89 9/19/89
f 11/23/90 13/26/90 98/185/90
f 15/33/91 12/24/91 97/182/91
f 101/192/92 103/196/92 19/41/92
f 23/49/93 104/200/93 96/179/93
f 91/164/12 3/6/12 90/161/12
f 1/1/94 94/174/94 93/169/94
f 89/159/95 88/158/95 91/166/95
f 2/4/96 94/172/96 92/167/96
f 7/15/97 97/180/97 12/25/97
f 1/2/98 93/171/98 95/177/98
f 13/27/99 100/190/99 98/183/99
f 99/188/89 41/93/89 21/44/89
f 6/13/100 93/170/100 94/175/100
f 103/197/101 15/31/101 98/184/101
f 100/189/21 101/191/21 17/36/21
f 19/40/22 103/197/22 102/194/22
f 23/48/102 42/94/102 105/201/102
f 8/17/93 95/176/93 99/188/93
f 44/99/93 106/203/93 105/202/93
f 106/203/103 46/102/103 105/202/103
f 21/45/104 46/103/104 106/204/104
f 21/45/105 106/204/105 99/187/105
f 44/98/106 20/42/106 106/204/106
f 106/204/107 20/42/107 99/187/107
f 108/208/108 113/214/108 56/118/108
f 14/30/109 15/32/110 103/198/110
f 125/229/32 123/227/32 82/151/32
f 110/211/95 88/158/95 89/159/95
f 112/213/22 78/146/22 53/115/22
f 114/215/108 112/213/108 53/115/108
f 107/205/95 113/214/95 108/208/95
f 86/155/33 121/225/33 119/222/33
f 117/219/111 116/218/111 62/126/111
f 117/219/112 67/131/112 63/127/112
f 89/160/36 115/216/36 4/10/36
f 115/217/113 60/122/113 67/131/113
f 115/217/114 117/219/114 65/129/114
f 100/190/115 16/34/115 18/39/115
f 121/225/95 123/227/95 122/226/95
f 119/222/95 121/225/95 120/224/95
f 123/227/40 121/225/40 86/155/40
f 123/227/95 125/229/95 124/228/95
f 92/168/95 91/166/95 88/158/95
f 88/158/116 110/211/116 50/111/116
f 91/166/95 92/168/95 94/173/95
f 13/28/117 14/29/117 100/189/117
f 100/189/118 14/29/118 101/191/118
f 89/160/44 60/123/44 115/216/44
f 118/220/119 90/163/120 119/223/46
f 62/126/121 116/218/121 63/127/121
f 91/165/122 94/174/122 3/7/122
f 3/7/123 94/174/123 1/1/123
f 11/22/124 97/180/124 6/12/124
f 6/12/125 97/180/125 93/171/125
f 56/118/126 113/214/126 114/215/126
f 1/2/127 95/177/127 8/16/127
f 98/183/128 100/190/128 102/195/128
f 7/14/89 41/93/89 95/176/89
f 95/176/89 41/93/89 99/188/89
f 103/197/129 98/184/129 102/194/129
f 100/189/130 17/36/130 16/35/130
f 19/40/131 102/194/131 18/38/131
f 23/48/132 105/201/132 104/199/132
f 46/104/133 22/47/133 105/201/133
f 105/201/134 22/47/134 104/199/134
f 108/207/135 109/210/135 107/206/135
f 108/207/136 110/211/136 109/210/136
f 113/214/95 111/212/95 114/215/95
f 114/215/95 111/212/95 112/213/95
f 111/212/95 113/214/95 107/205/95
f 117/219/137 62/126/137 65/129/137
f 117/219/138 63/127/138 116/218/138
f 115/217/139 65/129/139 4/9/139
f 110/211/140 108/207/141 47/106/142
f 4/10/36 87/156/36 109/209/36
f 112/213/70 111/212/70 79/147/70
f 79/147/71 111/212/71 107/205/71
f 81/150/72 85/154/72 124/228/72
f 120/224/73 83/152/73 69/135/73
f 85/154/74 84/153/74 122/226/74
f 84/153/75 83/152/75 120/224/75
f 87/157/22 80/148/22 107/206/22
f 5/11/83 92/168/83 88/158/83
f 95/177/87 97/180/88 7/15/87
f 104/200/89 9/19/89 96/179/89
f 11/23/90 98/185/90 97/181/90
f 15/33/91 97/182/91 98/186/91
f 101/192/92 19/41/92 17/37/92
f 23/49/93 96/179/93 10/21/93
f 89/159/95 91/166/95 90/162/95
f 6/13/100 94/175/100 2/5/100
f 8/17/93 99/188/93 20/43/93
f 44/99/93 105/202/93 42/95/93
f 108/208/108 56/118/108 47/105/108
f 14/30/109 103/198/110 101/193/109
f 125/229/32 82/151/32 81/150/32
f 110/211/95 89/159/95 109/210/95
f 114/215/108 53/115/108 58/120/108
f 86/155/33 119/222/33 68/132/33
f 89/160/36 4/10/36 109/209/36
f 115/217/113 67/131/113 117/219/113
f 100/190/115 18/39/115 102/195/115
f 121/225/95 122/226/95 120/224/95
f 119/222/95 120/224/95 118/221/95
f 123/227/40 86/155/40 82/151/40
f 123/227/95 124/228/95 122/226/95
f 88/158/116 50/111/116 5/11/116
f 68/133/76 119/223/76 3/8/76
f 3/8/76 119/223/76 90/163/143
f 89/160/144 118/220/119 60/123/79
f 60/123/79 118/220/145 69/134/79
f 89/160/144 90/163/146 118/220/119
f 56/118/126 114/215/126 58/120/126
f 110/211/147 47/106/141 50/111/147
f 112/213/70 79/147/70 78/146/70
f 79/147/71 107/205/71 80/149/71
f 81/150/72 124/228/72 125/229/72
f 120/224/73 69/135/73 118/221/73
f 85/154/74 122/226/74 124/228/74
f 84/153/75 120/224/75 122/226/75
f 87/157/22 107/206/22 109/210/22
