# Blender 3.4.1
# www.blender.org
mtllib coin.mtl
o Цилиндр
v 0.000000 0.637534 0.240652
v 0.450805 0.450805 0.240652
v 0.637534 -0.000000 0.240652
v 0.450805 -0.450805 0.240652
v 0.000000 -0.637534 0.240652
v -0.450805 -0.450805 0.240652
v -0.637534 -0.000000 0.240652
v -0.450805 0.450805 0.240652
v 0.000000 1.000000 0.000000
v 0.707107 0.707107 0.000000
v 1.000000 0.000000 0.000000
v 0.707107 -0.707107 -0.000000
v 0.000000 -1.000000 -0.000000
v -0.707107 -0.707107 -0.000000
v -1.000000 0.000000 0.000000
v -0.707107 0.707107 0.000000
v 0.707107 0.707107 0.240652
v 0.000000 1.000000 0.240652
v 1.000000 -0.000000 0.240652
v 0.707107 -0.707107 0.240652
v 0.000000 -1.000000 0.240652
v -0.707107 -0.707107 0.240652
v -1.000000 -0.000000 0.240652
v -0.707107 0.707107 0.240652
v 0.450805 0.450805 0.138177
v 0.000000 0.637534 0.138177
v 0.637534 -0.000000 0.138177
v 0.450805 -0.450805 0.138177
v 0.000000 -0.637534 0.138177
v -0.450805 -0.450805 0.138177
v -0.637534 -0.000000 0.138177
v -0.450805 0.450805 0.138177
v 0.000000 0.637534 -0.240652
v 0.450805 0.450805 -0.240652
v 0.637534 0.000000 -0.240652
v 0.450805 -0.450805 -0.240652
v 0.000000 -0.637534 -0.240652
v -0.450805 -0.450805 -0.240652
v -0.637534 0.000000 -0.240652
v -0.450805 0.450805 -0.240652
v 0.707107 0.707107 -0.240652
v 0.000000 1.000000 -0.240652
v 1.000000 0.000000 -0.240652
v 0.707107 -0.707107 -0.240652
v 0.000000 -1.000000 -0.240652
v -0.707107 -0.707107 -0.240652
v -1.000000 0.000000 -0.240652
v -0.707107 0.707107 -0.240652
v 0.450805 0.450805 -0.138177
v 0.000000 0.637534 -0.138177
v 0.637534 0.000000 -0.138177
v 0.450805 -0.450805 -0.138177
v 0.000000 -0.637534 -0.138177
v -0.450805 -0.450805 -0.138177
v -0.637534 0.000000 -0.138177
v -0.450805 0.450805 -0.138177
vn 0.3827 0.9239 -0.0000
vn 0.9239 0.3827 -0.0000
vn 0.9239 -0.3827 -0.0000
vn 0.3827 -0.9239 -0.0000
vn -0.3827 -0.9239 -0.0000
vn -0.9239 -0.3827 -0.0000
vn -0.9239 0.3827 -0.0000
vn -0.3827 0.9239 -0.0000
vn -0.0000 -0.0000 1.0000
vn -0.0000 -0.0000 -1.0000
vt 0.048083 0.498898
vt 0.146463 0.805602
vt 0.373185 0.937864
vt 0.598184 0.809297
vt 0.686861 0.501102
vt 0.588481 0.194398
vt 0.365451 0.067057
vt 0.136761 0.190703
vt 0.771324 0.004876
vt 0.771324 0.998496
vt 0.771324 0.129078
vt 0.771324 0.253281
vt 0.771324 0.377483
vt 0.771324 0.501686
vt 0.771324 0.625889
vt 0.771324 0.750091
vt 0.771324 0.874294
vt 0.975584 0.129078
vt 0.116147 0.833184
vt 0.975584 0.004876
vt 0.975584 0.998496
vt 0.012842 0.495682
vt 0.975584 0.253281
vt 0.378648 0.980703
vt 0.975584 0.377483
vt 0.619866 0.841433
vt 0.975584 0.501686
vt 0.722103 0.504318
vt 0.975584 0.625889
vt 0.618797 0.166816
vt 0.975584 0.750091
vt 0.367371 0.019297
vt 0.975584 0.874294
vt 0.115079 0.158567
vt 0.582596 0.784068
vt 0.171354 0.795076
vt 0.375826 0.901479
vt 0.074796 0.495211
vt 0.668242 0.500613
vt 0.367953 0.902673
vt 0.582596 0.217158
vt 0.585575 0.795948
vt 0.375826 0.099747
vt 0.676144 0.496587
vt 0.169057 0.217158
vt 0.582046 0.208205
vt 0.083410 0.500613
vt 0.366991 0.095686
vt 0.169057 0.784068
vt 0.157983 0.217177
vt 0.048083 0.498898
vt 0.146463 0.805602
vt 0.373185 0.937864
vt 0.598184 0.809297
vt 0.686861 0.501102
vt 0.588481 0.194398
vt 0.365451 0.067057
vt 0.136761 0.190703
vt 0.975584 0.129078
vt 0.116147 0.833184
vt 0.975584 0.004876
vt 0.975584 0.998496
vt 0.012842 0.495682
vt 0.975584 0.253281
vt 0.378648 0.980703
vt 0.975584 0.377483
vt 0.619866 0.841433
vt 0.975584 0.501686
vt 0.722103 0.504318
vt 0.975584 0.625889
vt 0.618797 0.166816
vt 0.975584 0.750091
vt 0.367371 0.019297
vt 0.975584 0.874294
vt 0.115079 0.158567
vt 0.582596 0.784068
vt 0.171354 0.795076
vt 0.375826 0.901479
vt 0.074796 0.495211
vt 0.668242 0.500613
vt 0.367953 0.902673
vt 0.582596 0.217158
vt 0.585575 0.795948
vt 0.375826 0.099747
vt 0.676144 0.496587
vt 0.169057 0.217158
vt 0.582046 0.208205
vt 0.083410 0.500613
vt 0.366991 0.095686
vt 0.169057 0.784068
vt 0.157983 0.217177
s 0
usemtl Материал
f 9/9/1 18/20/1 17/18/1 10/11/1
f 10/11/2 17/18/2 19/23/2 11/12/2
f 11/12/3 19/23/3 20/25/3 12/13/3
f 12/13/4 20/25/4 21/27/4 13/14/4
f 13/14/5 21/27/5 22/29/5 14/15/5
f 14/15/6 22/29/6 23/31/6 15/16/6
f 6/6/1 5/5/1 29/44/1 30/46/1
f 15/16/7 23/31/7 24/33/7 16/17/7
f 16/17/8 24/33/8 18/21/8 9/10/8
f 1/1/9 2/2/9 17/19/9 18/22/9
f 2/2/9 3/3/9 19/24/9 17/19/9
f 3/3/9 4/4/9 20/26/9 19/24/9
f 4/4/9 5/5/9 21/28/9 20/26/9
f 5/5/9 6/6/9 22/30/9 21/28/9
f 6/6/9 7/7/9 23/32/9 22/30/9
f 7/7/9 8/8/9 24/34/9 23/32/9
f 8/8/9 1/1/9 18/22/9 24/34/9
f 25/35/9 26/37/9 32/49/9 31/47/9 30/45/9 29/43/9 28/41/9 27/39/9
f 4/4/7 3/3/7 27/40/7 28/42/7
f 2/2/5 1/1/5 26/38/5 25/36/5
f 1/1/4 8/8/4 32/50/4 26/38/4
f 7/7/2 6/6/2 30/46/2 31/48/2
f 5/5/8 4/4/8 28/42/8 29/44/8
f 3/3/6 2/2/6 25/36/6 27/40/6
f 8/8/3 7/7/3 31/48/3 32/50/3
f 9/9/1 10/11/1 41/59/1 42/61/1
f 10/11/2 11/12/2 43/64/2 41/59/2
f 11/12/3 12/13/3 44/66/3 43/64/3
f 12/13/4 13/14/4 45/68/4 44/66/4
f 13/14/5 14/15/5 46/70/5 45/68/5
f 14/15/6 15/16/6 47/72/6 46/70/6
f 38/56/1 54/87/1 53/85/1 37/55/1
f 15/16/7 16/17/7 48/74/7 47/72/7
f 16/17/8 9/10/8 42/62/8 48/74/8
f 33/51/10 42/63/10 41/60/10 34/52/10
f 34/52/10 41/60/10 43/65/10 35/53/10
f 35/53/10 43/65/10 44/67/10 36/54/10
f 36/54/10 44/67/10 45/69/10 37/55/10
f 37/55/10 45/69/10 46/71/10 38/56/10
f 38/56/10 46/71/10 47/73/10 39/57/10
f 39/57/10 47/73/10 48/75/10 40/58/10
f 40/58/10 48/75/10 42/63/10 33/51/10
f 49/76/10 51/80/10 52/82/10 53/84/10 54/86/10 55/88/10 56/90/10 50/78/10
f 36/54/7 52/83/7 51/81/7 35/53/7
f 34/52/5 49/77/5 50/79/5 33/51/5
f 33/51/4 50/79/4 56/91/4 40/58/4
f 39/57/2 55/89/2 54/87/2 38/56/2
f 37/55/8 53/85/8 52/83/8 36/54/8
f 35/53/6 51/81/6 49/77/6 34/52/6
f 40/58/3 56/91/3 55/89/3 39/57/3
