# Blender 3.4.1
# www.blender.org
mtllib grassPlatform.mtl
o Cube
v -1.262440 1.347968 1.996579
v -0.892434 0.505645 1.592738
v 0.000000 0.088050 -1.690507
v 0.000000 1.566835 2.344312
v 0.000000 0.215329 1.836974
v 0.000000 1.566835 -2.167775
v -1.626573 0.505645 0.000000
v -1.996579 1.347968 0.000000
v -1.626573 0.505645 0.965382
v -1.996579 1.347968 0.998289
v -1.450741 1.546187 -1.026691
v -1.080736 0.505645 -0.993784
v 0.000000 -0.410204 -0.094898
v 1.262440 1.347968 1.996579
v 0.892434 0.505645 1.592738
v 1.626573 0.505645 0.000000
v 1.996579 1.347968 0.000000
v 1.626573 0.505645 0.965382
v 1.996579 1.347968 0.998289
v 1.450741 1.546187 -1.026691
v 1.080736 0.505645 -0.993784
vn -0.8499 0.5056 -0.1482
vn -0.7561 0.6100 0.2369
vn -0.5175 0.4516 0.7268
vn -0.0000 0.6496 0.7603
vn -0.3841 -0.6954 0.6073
vn -0.0000 -0.7706 0.6373
vn -0.6568 -0.6976 0.2862
vn -0.7338 -0.6514 -0.1929
vn -0.0000 -0.9994 -0.0350
vn -0.6491 -0.5622 -0.5124
vn -0.0000 -0.7387 -0.6740
vn -0.5977 0.6738 -0.4345
vn -0.0000 0.5958 -0.8031
vn 0.8499 0.5056 -0.1482
vn 0.5175 0.4516 0.7268
vn 0.7561 0.6100 0.2369
vn 0.3841 -0.6954 0.6073
vn 0.6568 -0.6976 0.2862
vn 0.7338 -0.6514 -0.1929
vn 0.6491 -0.5622 -0.5124
vn 0.5977 0.6738 -0.4345
vt 0.181414 0.453334
vt 0.818607 0.410377
vt 0.726416 0.209440
vt 0.022985 0.015691
vt 0.501495 0.409464
vt 0.983087 0.414282
vt 0.974533 0.007042
vt 0.501495 0.999914
vt 0.023499 0.416461
vt 0.486821 0.266057
vt 0.000086 0.714597
vt 0.482196 0.413427
vt 0.615685 0.271336
vt 0.000105 0.583962
vt 0.639405 0.412728
vt 0.143187 0.850592
vt 0.292116 0.415448
vt 0.336232 0.214484
vt 0.474254 0.007012
vt 0.181414 0.453334
vt 0.818607 0.410377
vt 0.726416 0.209440
vt 0.486821 0.266057
vt 0.000086 0.714597
vt 0.482196 0.413427
vt 0.615685 0.271336
vt 0.000105 0.583962
vt 0.639405 0.412728
vt 0.143187 0.850592
vt 0.292116 0.415448
vt 0.336232 0.214484
s 1
usemtl Material
f 8/11/1 10/14/2 1/1/3
f 4/6/4 2/3/5 5/7/6
f 9/13/7 8/12/1 7/10/8
f 1/2/3 9/13/7 2/3/5
f 13/19/9 12/18/10 3/4/11
f 7/10/8 11/17/12 12/18/10
f 6/9/13 12/18/10 11/17/12
f 6/8/13 11/16/12 4/5/4
f 13/19/9 2/3/5 9/13/7
f 11/16/12 8/11/1 4/5/4
f 4/5/4 8/11/1 1/1/3
f 4/6/4 1/2/3 2/3/5
f 9/13/7 10/15/2 8/12/1
f 1/2/3 10/15/2 9/13/7
f 13/19/9 7/10/8 12/18/10
f 7/10/8 8/12/1 11/17/12
f 6/9/13 3/4/11 12/18/10
f 9/13/7 7/10/8 13/19/9
f 13/19/9 5/7/6 2/3/5
f 17/24/14 14/20/15 19/27/16
f 4/6/4 5/7/6 15/22/17
f 18/26/18 16/23/19 17/25/14
f 14/21/15 15/22/17 18/26/18
f 13/19/9 3/4/11 21/31/20
f 16/23/19 21/31/20 20/30/21
f 6/9/13 20/30/21 21/31/20
f 6/8/13 4/5/4 20/29/21
f 13/19/9 18/26/18 15/22/17
f 20/29/21 4/5/4 17/24/14
f 4/5/4 14/20/15 17/24/14
f 4/6/4 15/22/17 14/21/15
f 18/26/18 17/25/14 19/28/16
f 14/21/15 18/26/18 19/28/16
f 13/19/9 21/31/20 16/23/19
f 16/23/19 20/30/21 17/25/14
f 6/9/13 21/31/20 3/4/11
f 18/26/18 13/19/9 16/23/19
f 13/19/9 15/22/17 5/7/6
